<?xml version="1.0" encoding="UTF-8"?>
<svg id="b" data-name="Layer 2" xmlns="http://www.w3.org/2000/svg" width="57.269" height="47.812" viewBox="0 0 57.269 47.812">
  <g id="c" data-name="Layer 1">
    <g>
      <g>
        <path d="M19.376,36.74l.263-.263c-.93-1.773-1.465-3.785-1.465-5.926v-13.214c0-2.181.555-4.228,1.518-6.024l-.241-.241-1.594,1.594c-1.408,1.408-2.199,3.317-2.199,5.308v11.939c0,1.991.791,3.9,2.199,5.308l1.519,1.519Z" stroke-width="0"/>
        <path d="M16.374,39.742l.18-.18c-1.342-2.269-2.118-4.911-2.118-7.738v-15.76c0-2.867.798-5.543,2.174-7.833l-.161-.161-2.412,2.412c-1.68,1.68-2.625,3.959-2.625,6.336v14.252c0,2.376.944,4.656,2.625,6.336l2.336,2.336Z" stroke-width="0"/>
        <path d="M8.602.223L8.379,0,3.769,4.61C1.356,7.023,0,10.296,0,13.709v20.469c0,3.413,1.356,6.686,3.769,9.1l4.534,4.534.237-.237c-2.462-3.518-3.916-7.791-3.916-12.411V12.723c0-4.659,1.478-8.966,3.977-12.5Z" stroke-width="0"/>
        <path d="M12.805,43.311l.08-.08c-1.846-2.848-2.932-6.234-2.932-9.88V14.537c0-3.686,1.108-7.106,2.991-9.972l-.063-.063-3.384,3.384c-2.005,2.005-3.131,4.723-3.131,7.558v17.001c0,2.835,1.126,5.554,3.131,7.558l3.308,3.308Z" stroke-width="0"/>
        <path d="M48.729,47.576l.237.237,4.534-4.534c2.414-2.413,3.769-5.687,3.769-9.1V13.709c0-3.413-1.356-6.686-3.769-9.1l-4.61-4.61-.223.223c2.499,3.535,3.977,7.841,3.977,12.5v22.442c0,4.62-1.454,8.893-3.916,12.411Z" stroke-width="0"/>
        <path d="M44.389,4.501l-.063.063c1.882,2.867,2.991,6.287,2.991,9.973v18.813c0,3.647-1.086,7.032-2.932,9.881l.08.08,3.308-3.308c2.005-2.005,3.131-4.723,3.131-7.558V15.443c0-2.835-1.126-5.554-3.131-7.558l-3.384-3.384Z" stroke-width="0"/>
        <path d="M40.82,8.07l-.161.161c1.376,2.29,2.174,4.966,2.174,7.833v15.76c0,2.827-.777,5.469-2.118,7.738l.18.18,2.337-2.336c1.68-1.68,2.624-3.959,2.624-6.336v-14.252c0-2.376-.944-4.656-2.624-6.336l-2.412-2.412Z" stroke-width="0"/>
        <path d="M41.61,29.913v-11.939c0-1.991-.791-3.9-2.198-5.308l-1.594-1.594-.241.241c.963,1.796,1.518,3.843,1.518,6.024v13.214c0,2.141-.535,4.153-1.465,5.926l.263.263,1.519-1.519c1.407-1.408,2.198-3.317,2.198-5.308Z" stroke-width="0"/>
      </g>
      <circle cx="28.635" cy="23.906" r="5.421" stroke-width="0"/>
    </g>
  </g>
</svg>