<?xml version="1.0" encoding="UTF-8"?>
<svg id="b" data-name="Layer 2" xmlns="http://www.w3.org/2000/svg" width="44.47" height="46.469" viewBox="0 0 44.47 46.469">
  <g id="c" data-name="Layer 1">
    <path d="M14.532,15.396c-5.224-.084-9.942,3.248-11.474,8.243-.709,2.31.259,6.211-2.783,7.2l4.324-1.209c.735-.198,1.25-.845,1.302-1.605.263-3.905,3.007-7.361,7.011-8.344.603-.148,1.205-.226,1.802-.252-.484.127-.951.33-1.376.628l-1.942,1.364c-4.276,3.003-6.134,8.471-4.437,13.413.785,2.286,3.861,4.873,1.981,7.46l2.788-3.52c.478-.592.515-1.419.11-2.063-2.083-3.314-1.894-7.723.768-10.872.392-.463.823-.872,1.279-1.239-.305.38-.549.814-.713,1.292l-.77,2.245c-1.694,4.942.017,10.459,4.294,13.459,1.978,1.388,5.987,1.673,5.987,4.871l.186-4.486c.038-.76-.418-1.451-1.124-1.734-3.633-1.457-6.072-5.135-5.769-9.247.045-.605.153-1.19.307-1.754-.023.487.034.982.182,1.465l.697,2.269c1.535,4.994,6.161,8.451,11.385,8.365,2.416-.04,5.827-2.166,7.707.422l-2.486-3.739c-.416-.637-1.19-.928-1.928-.742-3.795.957-7.93-.585-10.102-4.09-.32-.516-.575-1.052-.783-1.598.267.407.604.774,1.008,1.077l1.898,1.426c4.177,3.138,9.952,3.216,14.128.075,1.931-1.453,3.441-5.177,6.483-4.189l-4.209-1.563c-.711-.271-1.509-.051-1.996.533-2.508,3.005-6.76,4.188-10.577,2.63-.562-.229-1.084-.513-1.574-.834.456.173.944.271,1.45.279l2.373.038c5.224.084,9.942-3.248,11.474-8.243.709-2.31-.259-6.211,2.783-7.2l-4.324,1.209c-.735.198-1.25.845-1.302,1.605-.263,3.905-3.007,7.361-7.011,8.344-.602.148-1.205.226-1.802.252.484-.127.951-.33,1.376-.628l1.942-1.364c4.276-3.003,6.134-8.471,4.437-13.413-.785-2.286-3.861-4.873-1.981-7.46l-2.788,3.52c-.478.592-.515,1.419-.11,2.063,2.083,3.314,1.894,7.723-.768,10.872-.392.464-.823.873-1.28,1.239.305-.38.55-.815.714-1.293l.77-2.245c1.694-4.942-.017-10.459-4.294-13.459-1.978-1.388-5.987-1.673-5.987-4.871l-.186,4.486c-.038.76.418,1.451,1.124,1.734,3.633,1.457,6.072,5.135,5.769,9.247-.045.605-.153,1.189-.306,1.753.023-.487-.034-.981-.182-1.464l-.697-2.269c-1.535-4.994-6.161-8.451-11.385-8.365-2.416.04-5.827,2.166-7.707-.422l2.486,3.739c.416.637,1.19.928,1.928.742,3.795-.957,7.93.585,10.102,4.09.32.516.575,1.052.783,1.599-.267-.407-.604-.774-1.008-1.078l-1.898-1.426c-4.177-3.138-9.952-3.216-14.128-.075-1.931,1.453-3.441,5.177-6.483,4.189l4.209,1.563c.711.271,1.509.051,1.996-.533,2.508-3.005,6.76-4.188,10.577-2.629.562.229,1.084.513,1.573.833-.456-.172-.944-.271-1.449-.279l-2.373-.038Z" stroke-width="0"/>
  </g>
</svg>