<svg xmlns="http://www.w3.org/2000/svg" width="176" height="80" viewBox="0 0 176 80" fill="none"><path d="M72.3342 0.150671C72.0831 0.250731 69.471 0.60095 66.5575 0.901129C55.8581 2.10187 44.0536 4.50336 37.1718 6.95488C35.5141 7.55524 33.5048 8.20564 32.6509 8.40577C30.0388 9.15623 18.9375 14.1593 18.3347 14.9098C18.184 15.0599 17.2798 15.6602 16.3254 16.1606C13.5124 17.7115 9.19248 21.1637 6.78134 23.8153C3.46602 27.4675 3.06416 28.0179 1.45673 31.2699C0.100464 34.0216 0 34.622 0 39.9753C0 45.3786 0.100464 45.929 1.50696 48.7307C2.36091 50.3817 3.36555 52.1828 3.76741 52.6831C7.13296 56.9858 12.3571 61.5886 16.8278 64.1402C19.691 65.7912 28.13 69.9938 28.6323 69.9938C28.8332 69.9938 29.6872 70.294 30.5411 70.6442C34.9615 72.4954 44.6061 75.3972 49.981 76.4478C64.3976 79.2495 72.5352 80 87.9062 80C101.419 80 107.647 79.5497 118.799 77.6986C128.494 76.0976 138.942 73.3459 145.271 70.6442C146.125 70.294 146.979 69.9938 147.18 69.9938C147.682 69.9938 156.121 65.7912 159.135 64.0902C165.364 60.4879 171.492 54.2341 174.356 48.5306C175.561 46.1291 175.812 44.9784 175.963 40.7758C176.164 35.2223 175.611 33.1711 172.648 28.4682C169.835 23.9654 164.359 18.9123 158.985 15.8103C156.121 14.1593 147.682 9.95673 147.18 9.95673C146.979 9.95673 146.125 9.65655 145.271 9.30633C140.851 7.45518 131.206 4.55339 125.831 3.50274C122.466 2.85234 115.484 1.70163 110.008 0.901129C106.392 0.35079 73.59 -0.299608 72.3342 0.150671ZM98.4549 5.00367C102.222 6.30447 107.748 9.00614 107.748 9.55648C107.748 9.75661 108.1 9.95673 108.501 9.95673C108.903 9.95673 109.255 10.1569 109.255 10.457C109.255 10.7072 109.456 10.9574 109.707 10.9574C110.511 10.9574 114.78 15.0599 116.991 18.0117C118.899 20.5633 120.457 23.315 122.466 28.0179C122.868 28.9685 123.621 32.0704 124.124 34.8721C124.977 39.7751 124.977 40.1754 124.124 45.0784C123.621 47.8802 122.868 50.9821 122.466 51.9327C120.457 56.6356 118.899 59.3873 116.991 61.9388C114.78 64.8907 110.511 68.9932 109.707 68.9932C109.456 68.9932 109.255 69.1933 109.255 69.4935C109.255 69.7437 109.004 69.9938 108.652 69.9938C108.351 69.9938 107.698 70.294 107.296 70.6943C106.14 71.7449 101.921 73.7461 98.2038 75.0469C95.3908 76.0476 93.934 76.1977 87.9062 76.1977C81.8783 76.1977 80.4216 76.0476 77.6086 75.0469C73.6403 73.6461 68.0645 70.9444 68.0645 70.3941C68.0645 70.1939 67.7129 69.9938 67.311 69.9938C66.9092 69.9938 66.5575 69.7437 66.5575 69.4935C66.5575 69.1933 66.3566 68.9932 66.1055 68.9932C64.8497 68.9932 56.5111 59.9876 56.5111 58.6868C56.5111 58.4867 56.2097 57.9364 55.8581 57.5361C53.8991 55.2347 50.9856 44.6782 50.9856 39.9753C50.9856 35.2724 53.8991 24.7158 55.8581 22.4144C56.2097 22.0142 56.5111 21.4638 56.5111 21.2637C56.5111 19.7128 65.9045 9.95673 67.4115 9.95673C67.7631 9.95673 68.0645 9.75661 68.0645 9.55648C68.0645 8.4558 77.7593 4.50336 81.8783 3.90299C86.2988 3.25258 95.1396 3.85296 98.4549 5.00367ZM65.5027 6.15438C65.4022 6.25444 63.6441 7.70534 61.6348 9.45642C59.5753 11.1575 56.913 13.9592 55.7074 15.6602C54.5018 17.3113 53.3465 18.9123 53.1456 19.2124C51.3372 21.5639 47.9717 31.1198 47.9717 33.8715C47.9717 38.2242 48.6749 37.974 37.1215 37.974C31.4955 37.974 26.8742 37.924 26.8742 37.8239C26.8742 37.7239 27.2258 36.4231 27.6779 34.9222C28.7328 31.2699 31.0434 26.567 32.7513 24.6158C33.5048 23.7653 34.8611 22.2643 35.6648 21.3638C38.6285 18.0117 49.5289 11.0574 53.7484 9.80663C54.3009 9.65655 55.7576 9.15623 57.0134 8.65592C58.2693 8.20564 60.6302 7.40515 62.2878 6.95488C66.005 5.85419 65.7538 5.90423 65.5027 6.15438ZM118.799 8.65592C120.055 9.15623 121.511 9.65655 122.064 9.80663C125.882 11.0074 136.983 17.8616 139.595 20.7134C140.7 21.9141 143.614 25.3662 144.317 26.2168C145.322 27.5676 147.481 32.5207 148.134 34.9722L148.788 37.7239L138.741 37.874C133.216 37.924 128.594 37.874 128.444 37.7739C128.343 37.6238 128.042 36.0228 127.841 34.1217C127.59 32.2705 126.937 29.3687 126.334 27.7177C125.781 26.0667 125.128 24.2656 124.977 23.7152C124.777 23.1649 123.621 21.0136 122.365 18.9623C120.105 15.26 116.589 11.3576 112.369 7.85543L110.209 6.05432L113.374 6.95488C115.132 7.40515 117.543 8.20564 118.799 8.65592ZM45.9624 9.20627C45.6108 9.60651 45.1084 9.95673 44.8573 9.95673C43.501 9.95673 36.5187 15.21 32.249 19.3125C28.4314 23.0148 23.8603 31.2199 23.8603 34.3718C23.8603 35.1223 23.7096 36.223 23.5589 36.8233C23.2575 37.974 23.157 37.974 13.5124 37.974H3.76741V36.5732C3.81764 35.0722 4.82228 32.8209 6.83157 29.6689C8.43899 27.2674 15.1701 20.9635 16.1245 20.9635C16.5264 20.9635 16.8278 20.8134 16.8278 20.5633C16.8278 19.8629 22.8556 16.6108 28.8835 14.1593C31.2444 13.1587 33.8564 12.1081 34.6602 11.7078C35.5141 11.3576 37.6238 10.6572 39.4322 10.2069C41.2406 9.75661 43.0489 9.15623 43.4508 8.90608C43.8526 8.65592 44.7568 8.4558 45.4098 8.4558C46.4145 8.4558 46.4647 8.55586 45.9624 9.20627ZM135.024 9.75661C137.586 10.5071 140.349 11.3576 141.152 11.7078C142.006 12.1081 144.468 13.1087 146.678 14.0092C152.404 16.3607 158.985 19.8629 158.985 20.5633C158.985 20.8134 159.286 20.9635 159.638 20.9635C159.939 20.9635 161.647 22.2643 163.405 23.8153C168.328 28.168 172.045 33.7214 172.045 36.6732V37.974H162.3C152.655 37.974 152.555 37.974 152.254 36.8233C152.103 36.223 151.952 35.2223 151.952 34.5719C151.952 30.8696 146.728 22.2643 141.705 17.6115C138.339 14.5095 131.96 9.95673 130.955 9.95673C130.704 9.95673 130.202 9.60651 129.85 9.20627C128.996 8.15562 129.599 8.20564 135.024 9.75661ZM23.6091 43.8277C24.5635 50.2316 28.3811 56.9858 33.9569 62.189C37.3727 65.3409 43.8526 69.9938 44.8573 69.9938C45.1084 69.9938 45.6108 70.344 45.9624 70.7443C46.4145 71.2946 46.4145 71.4947 46.0126 71.4947C45.2089 71.4947 36.2676 68.7931 33.1532 67.5923C25.7691 64.7906 16.8278 60.2878 16.8278 59.3372C16.8278 59.1371 16.5264 58.987 16.225 58.987C15.8733 58.987 14.1655 57.6862 12.4073 56.1353C7.48458 51.7826 3.76741 46.2291 3.76741 43.2773V41.9765H13.5627H23.3077L23.6091 43.8277ZM47.6703 43.0772C47.821 43.7276 47.9717 45.0784 47.9717 46.079C47.9717 48.8307 51.3372 58.3866 53.1456 60.7381C53.3465 60.9883 54.5018 62.6393 55.7074 64.2903C57.4153 66.6918 61.1827 70.344 65.4524 73.7461C65.8041 74.0463 59.1232 72.0951 57.0134 71.2946C55.7576 70.7943 54.3009 70.294 53.7484 70.1439C49.9307 68.9432 38.8797 62.139 36.1671 59.1871C31.4453 54.084 29.1346 50.3317 27.9291 45.7288C27.5774 44.328 27.1756 42.9271 27.0751 42.5769C26.9244 42.1266 29.1849 41.9765 37.1215 41.9765C47.3186 41.9765 47.3689 41.9765 47.6703 43.0772ZM148.386 43.9277C147.632 47.2798 145.522 52.2328 144.166 53.7838C143.915 54.084 143.011 55.1847 142.157 56.2353C139.645 59.4873 133.668 64.4904 132.362 64.4904C132.11 64.4904 131.859 64.6905 131.859 64.8907C131.859 65.391 123.973 69.3434 120.306 70.7443C119.05 71.1946 117.543 71.7949 116.89 72.0451C116.237 72.2952 114.73 72.7455 113.575 72.9957C112.419 73.2458 111.013 73.596 110.46 73.7461C109.606 74.0463 109.606 73.9963 110.511 73.3959C115.735 70.0438 123.571 60.7381 124.977 56.2353C125.128 55.685 125.831 53.5336 126.535 51.4824C127.288 49.4311 127.841 46.9796 127.841 45.979C127.841 45.0284 127.991 43.7276 128.142 43.0772C128.443 41.9765 128.494 41.9765 138.641 41.9765H148.838L148.386 43.9277ZM172.045 43.2773C172.045 45.979 168.428 51.6325 164.41 55.2347C161.145 58.1365 160.039 58.987 159.487 58.987C159.186 58.987 158.985 59.1871 158.985 59.4373C158.985 59.6874 158.533 60.0877 157.98 60.2378C157.427 60.3879 156.674 60.8382 156.322 61.1383C155.217 62.139 146.678 66.1915 142.358 67.7424C137.787 69.3934 127.288 72.3453 127.841 71.845C127.991 71.7449 129.448 70.8944 131.106 69.9938C142.107 64.0401 150.495 54.034 152.002 45.0784C152.254 43.5275 152.454 42.1766 152.454 42.0766C152.454 42.0265 156.875 41.9765 162.25 41.9765H172.045V43.2773Z" fill="#151515"></path><path d="M105.032 36.5654C104.964 35.8779 104.671 35.3438 104.154 34.9631C103.637 34.5825 102.936 34.3921 102.049 34.3921C101.447 34.3921 100.938 34.4773 100.524 34.6478C100.109 34.8126 99.7908 35.0427 99.5692 35.3381C99.3533 35.6336 99.2453 35.9688 99.2453 36.3438C99.2339 36.6563 99.2993 36.929 99.4413 37.162C99.589 37.395 99.7908 37.5967 100.046 37.7671C100.302 37.9319 100.598 38.0768 100.933 38.2018C101.268 38.3211 101.626 38.4234 102.007 38.5086L103.575 38.8836C104.336 39.054 105.035 39.2813 105.671 39.5654C106.308 39.8495 106.859 40.1989 107.325 40.6137C107.791 41.0285 108.152 41.5171 108.407 42.0796C108.669 42.6421 108.802 43.287 108.808 44.0143C108.802 45.0825 108.529 46.0086 107.99 46.7927C107.456 47.5711 106.683 48.1762 105.671 48.608C104.666 49.0342 103.453 49.2472 102.032 49.2472C100.623 49.2472 99.3959 49.0313 98.3504 48.5995C97.3106 48.1677 96.4981 47.5285 95.9129 46.6819C95.3334 45.8296 95.0294 44.7756 95.001 43.52H98.572C98.6118 44.1052 98.7794 44.5938 99.0748 44.9859C99.376 45.3722 99.7765 45.6648 100.277 45.8637C100.782 46.0569 101.353 46.1535 101.99 46.1535C102.615 46.1535 103.157 46.0626 103.617 45.8807C104.083 45.6989 104.444 45.4461 104.7 45.1222C104.956 44.7984 105.083 44.4262 105.083 44.0057C105.083 43.6137 104.967 43.2842 104.734 43.0171C104.507 42.7501 104.171 42.5228 103.728 42.3353C103.291 42.1478 102.754 41.9773 102.117 41.8239L100.217 41.3467C98.7453 40.9887 97.5834 40.429 96.7311 39.6677C95.8788 38.9063 95.4555 37.8807 95.4612 36.591C95.4555 35.5342 95.7368 34.6109 96.305 33.8211C96.8788 33.0313 97.6658 32.4148 98.6658 31.9717C99.6658 31.5285 100.802 31.3069 102.075 31.3069C103.37 31.3069 104.501 31.5285 105.467 31.9717C106.438 32.4148 107.194 33.0313 107.734 33.8211C108.274 34.6109 108.552 35.5256 108.569 36.5654H105.032Z" fill="black"></path><path d="M80.0244 49V31.5454H86.9108C88.2346 31.5454 89.3625 31.7983 90.2943 32.3039C91.2261 32.8039 91.9363 33.5 92.425 34.392C92.9193 35.2784 93.1665 36.3011 93.1665 37.4602C93.1665 38.6193 92.9165 39.642 92.4165 40.5284C91.9165 41.4147 91.192 42.1051 90.2432 42.5994C89.3 43.0937 88.1579 43.3409 86.817 43.3409H82.4278V40.3835H86.2204C86.9307 40.3835 87.5159 40.2613 87.9761 40.017C88.442 39.767 88.7886 39.4233 89.0159 38.9858C89.2488 38.5426 89.3653 38.034 89.3653 37.4602C89.3653 36.8806 89.2488 36.375 89.0159 35.9431C88.7886 35.5056 88.442 35.1676 87.9761 34.9289C87.5102 34.6846 86.9193 34.5625 86.2034 34.5625H83.7148V49H80.0244Z" fill="black"></path><path d="M73.2979 31.5454H76.9882V42.8806C76.9882 44.1534 76.6842 45.267 76.0763 46.2215C75.474 47.1761 74.6302 47.9204 73.545 48.4545C72.4598 48.9829 71.1956 49.2471 69.7524 49.2471C68.3035 49.2471 67.0365 48.9829 65.9513 48.4545C64.866 47.9204 64.0223 47.1761 63.42 46.2215C62.8177 45.267 62.5166 44.1534 62.5166 42.8806V31.5454H66.2069V42.5653C66.2069 43.2301 66.3518 43.821 66.6416 44.338C66.9371 44.8551 67.3518 45.2613 67.8859 45.5568C68.42 45.8522 69.0422 46 69.7524 46C70.4683 46 71.0905 45.8522 71.6189 45.5568C72.153 45.2613 72.5649 44.8551 72.8547 44.338C73.1501 43.821 73.2979 43.2301 73.2979 42.5653V31.5454Z" fill="black"></path></svg>